<mxfile host="app.diagrams.net" agent="Mozilla/5.0 (Windows NT 10.0; Win64; x64) AppleWebKit/537.36 (KHTML, like Gecko) Chrome/139.0.0.0 Safari/537.36 Edg/139.0.0.0" version="28.1.1">
  <diagram name="Page-1" id="gITQ_93DNzAz5YHje_g1">
    <mxGraphModel dx="1884" dy="1670" grid="1" gridSize="10" guides="1" tooltips="1" connect="1" arrows="1" fold="1" page="1" pageScale="1" pageWidth="850" pageHeight="1100" math="0" shadow="0">
      <root>
        <mxCell id="0" />
        <mxCell id="1" parent="0" />
        <mxCell id="7_Kw5V6rY93gh1LlaL-j-1" value="容器1" style="rounded=1;whiteSpace=wrap;html=1;" parent="1" vertex="1">
          <mxGeometry x="130" y="150" width="120" height="60" as="geometry" />
        </mxCell>
        <mxCell id="7_Kw5V6rY93gh1LlaL-j-2" value="容器2" style="rounded=1;whiteSpace=wrap;html=1;" parent="1" vertex="1">
          <mxGeometry x="340" y="150" width="120" height="60" as="geometry" />
        </mxCell>
        <mxCell id="7_Kw5V6rY93gh1LlaL-j-4" value="控制平面(master)" style="rounded=1;whiteSpace=wrap;html=1;verticalAlign=top;fillColor=default;dashed=1;dashPattern=12 12;" parent="1" vertex="1">
          <mxGeometry x="-220" y="40" width="470" height="240" as="geometry" />
        </mxCell>
        <mxCell id="7_Kw5V6rY93gh1LlaL-j-5" value="kube-api server" style="rounded=1;whiteSpace=wrap;html=1;" parent="1" vertex="1">
          <mxGeometry x="-190" y="70" width="410" height="40" as="geometry" />
        </mxCell>
        <mxCell id="7_Kw5V6rY93gh1LlaL-j-6" value="kube-controller-manager" style="rounded=1;whiteSpace=wrap;html=1;" parent="1" vertex="1">
          <mxGeometry x="30" y="120" width="190" height="40" as="geometry" />
        </mxCell>
        <mxCell id="7_Kw5V6rY93gh1LlaL-j-7" value="cloud-controller-manager" style="rounded=1;whiteSpace=wrap;html=1;" parent="1" vertex="1">
          <mxGeometry x="-190" y="120" width="190" height="40" as="geometry" />
        </mxCell>
        <mxCell id="7_Kw5V6rY93gh1LlaL-j-8" value="kube-scheduler" style="rounded=1;whiteSpace=wrap;html=1;" parent="1" vertex="1">
          <mxGeometry x="-190" y="170" width="410" height="40" as="geometry" />
        </mxCell>
        <mxCell id="7_Kw5V6rY93gh1LlaL-j-9" value="etcd" style="rounded=1;whiteSpace=wrap;html=1;" parent="1" vertex="1">
          <mxGeometry x="-190" y="220" width="410" height="40" as="geometry" />
        </mxCell>
        <mxCell id="7_Kw5V6rY93gh1LlaL-j-10" style="edgeStyle=orthogonalEdgeStyle;rounded=0;orthogonalLoop=1;jettySize=auto;html=1;entryX=0.25;entryY=0;entryDx=0;entryDy=0;" parent="1" source="7_Kw5V6rY93gh1LlaL-j-11" target="7_Kw5V6rY93gh1LlaL-j-5" edge="1">
          <mxGeometry relative="1" as="geometry">
            <Array as="points">
              <mxPoint x="-100" />
              <mxPoint x="-87" />
            </Array>
          </mxGeometry>
        </mxCell>
        <mxCell id="7_Kw5V6rY93gh1LlaL-j-11" value="kubectl" style="rounded=0;whiteSpace=wrap;html=1;" parent="1" vertex="1">
          <mxGeometry x="-160" y="-60" width="120" height="60" as="geometry" />
        </mxCell>
        <mxCell id="7_Kw5V6rY93gh1LlaL-j-12" value="Dashboard" style="rounded=0;whiteSpace=wrap;html=1;" parent="1" vertex="1">
          <mxGeometry x="90" y="-60" width="120" height="60" as="geometry" />
        </mxCell>
        <mxCell id="7_Kw5V6rY93gh1LlaL-j-13" value="第三方云平台11" style="ellipse;shape=cloud;whiteSpace=wrap;html=1;" parent="1" vertex="1">
          <mxGeometry x="-410" y="90" width="120" height="80" as="geometry" />
        </mxCell>
        <mxCell id="7_Kw5V6rY93gh1LlaL-j-14" style="edgeStyle=orthogonalEdgeStyle;rounded=0;orthogonalLoop=1;jettySize=auto;html=1;entryX=0.615;entryY=0.072;entryDx=0;entryDy=0;entryPerimeter=0;" parent="1" source="7_Kw5V6rY93gh1LlaL-j-12" target="7_Kw5V6rY93gh1LlaL-j-5" edge="1">
          <mxGeometry relative="1" as="geometry">
            <Array as="points">
              <mxPoint x="150" y="20" />
              <mxPoint x="62" y="20" />
            </Array>
          </mxGeometry>
        </mxCell>
        <mxCell id="7_Kw5V6rY93gh1LlaL-j-15" value="节点(node)" style="rounded=1;whiteSpace=wrap;html=1;verticalAlign=top;fillColor=default;dashed=1;dashPattern=12 12;" parent="1" vertex="1">
          <mxGeometry x="300" y="40" width="440" height="240" as="geometry" />
        </mxCell>
        <mxCell id="7_Kw5V6rY93gh1LlaL-j-16" style="edgeStyle=orthogonalEdgeStyle;rounded=0;orthogonalLoop=1;jettySize=auto;html=1;entryX=0.945;entryY=0.581;entryDx=0;entryDy=0;entryPerimeter=0;" parent="1" source="7_Kw5V6rY93gh1LlaL-j-7" target="7_Kw5V6rY93gh1LlaL-j-13" edge="1">
          <mxGeometry relative="1" as="geometry" />
        </mxCell>
        <mxCell id="7_Kw5V6rY93gh1LlaL-j-17" value="kubelet" style="rounded=1;whiteSpace=wrap;html=1;" parent="1" vertex="1">
          <mxGeometry x="320" y="80" width="180" height="40" as="geometry" />
        </mxCell>
        <mxCell id="7_Kw5V6rY93gh1LlaL-j-18" value="kube-proxy" style="rounded=1;whiteSpace=wrap;html=1;" parent="1" vertex="1">
          <mxGeometry x="520" y="80" width="200" height="40" as="geometry" />
        </mxCell>
        <mxCell id="7_Kw5V6rY93gh1LlaL-j-19" value="container-runtime" style="rounded=1;whiteSpace=wrap;html=1;" parent="1" vertex="1">
          <mxGeometry x="320" y="220" width="400" height="50" as="geometry" />
        </mxCell>
        <mxCell id="7_Kw5V6rY93gh1LlaL-j-20" value="Pod1&lt;div&gt;&lt;br&gt;&lt;/div&gt;&lt;div&gt;容器1 容器2 容器3&lt;/div&gt;" style="rounded=1;whiteSpace=wrap;html=1;verticalAlign=top;" parent="1" vertex="1">
          <mxGeometry x="320" y="140" width="120" height="70" as="geometry" />
        </mxCell>
        <mxCell id="7_Kw5V6rY93gh1LlaL-j-21" value="Pod2&lt;div&gt;&lt;br&gt;&lt;/div&gt;&lt;div&gt;容器1&lt;/div&gt;" style="rounded=1;whiteSpace=wrap;html=1;verticalAlign=top;" parent="1" vertex="1">
          <mxGeometry x="460" y="140" width="120" height="70" as="geometry" />
        </mxCell>
        <mxCell id="7_Kw5V6rY93gh1LlaL-j-22" value="Pod3&lt;div&gt;&lt;br&gt;&lt;/div&gt;&lt;div&gt;容器2 容器3&lt;/div&gt;" style="rounded=1;whiteSpace=wrap;html=1;verticalAlign=top;" parent="1" vertex="1">
          <mxGeometry x="600" y="140" width="120" height="70" as="geometry" />
        </mxCell>
      </root>
    </mxGraphModel>
  </diagram>
</mxfile>
